<?xml version="1.0" encoding="UTF-8" standalone="no"?>
<!-- Created with Inkscape (http://www.inkscape.org/) -->

<svg
   width="291.04166mm"
   height="84.402084mm"
   viewBox="0 0 291.04166 84.402084"
   version="1.1"
   id="svg5"
   xml:space="preserve"
   inkscape:version="1.2.1 (1:1.2.1+202210291244+9c6d41e410)"
   sodipodi:docname="logo.svg"
   inkscape:export-filename="logo_2.svg"
   inkscape:export-xdpi="34.208755"
   inkscape:export-ydpi="34.208755"
   xmlns:inkscape="http://www.inkscape.org/namespaces/inkscape"
   xmlns:sodipodi="http://sodipodi.sourceforge.net/DTD/sodipodi-0.dtd"
   xmlns="http://www.w3.org/2000/svg"
   xmlns:svg="http://www.w3.org/2000/svg"><sodipodi:namedview
     id="namedview7"
     pagecolor="#505050"
     bordercolor="#eeeeee"
     borderopacity="1"
     inkscape:showpageshadow="0"
     inkscape:pageopacity="0"
     inkscape:pagecheckerboard="0"
     inkscape:deskcolor="#505050"
     inkscape:document-units="mm"
     showgrid="false"
     showguides="true"
     inkscape:zoom="0.5"
     inkscape:cx="287"
     inkscape:cy="211"
     inkscape:window-width="1876"
     inkscape:window-height="1016"
     inkscape:window-x="1964"
     inkscape:window-y="27"
     inkscape:window-maximized="1"
     inkscape:current-layer="layer1" /><defs
     id="defs2" /><g
     inkscape:label="Layer 1"
     inkscape:groupmode="layer"
     id="layer1"><rect
       style="fill:#ffffff;fill-opacity:1;stroke-width:0.264583"
       id="rect5301"
       width="415.10947"
       height="226.36662"
       x="-78.974358"
       y="-54.525982"
       inkscape:label="bckground" /><path
       id="rect4634"
       style="display:inline;fill:#c7e9f4;fill-opacity:1;stroke-width:0.216917"
       d="M 106.84452,4.9823035 A 37.5,37.5 0 0 0 69.344486,42.48234 37.5,37.5 0 0 0 106.84452,79.982376 37.5,37.5 0 0 0 144.17764,45.982384 h -5.0462 A 32.5,32.5 0 0 1 106.84452,74.982165 32.5,32.5 0 0 1 74.344697,42.48234 32.5,32.5 0 0 1 106.84452,9.9825151 32.5,32.5 0 0 1 139.13144,38.982295 h 5.0462 A 37.5,37.5 0 0 0 106.84452,4.9823035 Z"
       inkscape:label="OuterO" /><rect
       style="display:inline;fill:#55565a;fill-opacity:1;stroke-width:0.261723"
       id="rect4630"
       width="15.127126"
       height="5"
       x="129.06241"
       y="39.982304"
       inkscape:label="Dash" /><path
       id="rect4610"
       style="display:inline;fill:#79d0e1;fill-opacity:1;stroke-width:0.193397"
       d="M 106.84452,14.982209 A 27.5,27.5 0 0 0 79.344392,42.48234 27.5,27.5 0 0 0 106.84452,69.98247 27.5,27.5 0 0 0 134.12089,45.982384 H 129.0628 A 22.5,22.5 0 0 1 106.84452,64.982258 22.5,22.5 0 0 1 84.344604,42.48234 22.5,22.5 0 0 1 106.84452,19.982421 22.5,22.5 0 0 1 129.0628,38.982295 h 5.05809 A 27.5,27.5 0 0 0 106.84452,14.982209 Z"
       inkscape:label="CentralO" /><path
       id="circle3934"
       style="display:inline;fill:#55565a;fill-opacity:1;stroke-width:0.268927"
       d="M 106.84452,24.982116 A 17.5,17.5 0 0 0 89.344299,42.48234 17.5,17.5 0 0 0 106.84452,59.982047 17.5,17.5 0 0 0 124.34423,42.48234 17.5,17.5 0 0 0 106.84452,24.982116 Z m 0,5.000211 A 12.5,12.5 0 0 1 119.34453,42.48234 12.5,12.5 0 0 1 106.84452,54.982352 12.5,12.5 0 0 1 94.34451,42.48234 12.5,12.5 0 0 1 106.84452,29.982327 Z"
       inkscape:label="InnerO" /><text
       xml:space="preserve"
       style="font-style:normal;font-variant:normal;font-weight:normal;font-stretch:normal;font-size:54.0133px;font-family:Ubuntu;-inkscape-font-specification:'Ubuntu, Normal';font-variant-ligatures:normal;font-variant-caps:normal;font-variant-numeric:normal;font-variant-east-asian:normal;fill:#55565a;fill-opacity:1;stroke-width:4.50109"
       x="48.088097"
       y="64.151863"
       id="text5312"
       inkscape:label="Y"
       transform="scale(1.0696499,0.93488533)"><tspan
         sodipodi:role="line"
         id="tspan5310"
         style="font-style:normal;font-variant:normal;font-weight:normal;font-stretch:normal;font-size:54.0133px;font-family:Ubuntu;-inkscape-font-specification:'Ubuntu, Normal';font-variant-ligatures:normal;font-variant-caps:normal;font-variant-numeric:normal;font-variant-east-asian:normal;fill:#55565a;fill-opacity:1;stroke-width:4.50109"
         x="48.088097"
         y="64.151863">Y</tspan></text><text
       xml:space="preserve"
       style="font-style:normal;font-variant:normal;font-weight:normal;font-stretch:normal;font-size:51.9162px;font-family:Ubuntu;-inkscape-font-specification:'Ubuntu, Normal';font-variant-ligatures:normal;font-variant-caps:normal;font-variant-numeric:normal;font-variant-east-asian:normal;fill:#55565a;fill-opacity:1;stroke-width:4.32633"
       x="1.6859454"
       y="61.588936"
       id="text6296"
       inkscape:label="M"
       transform="scale(1.0281182,0.9726508)"><tspan
         sodipodi:role="line"
         id="tspan6294"
         style="font-style:normal;font-variant:normal;font-weight:normal;font-stretch:normal;font-size:51.9162px;font-family:Ubuntu;-inkscape-font-specification:'Ubuntu, Normal';font-variant-ligatures:normal;font-variant-caps:normal;font-variant-numeric:normal;font-variant-east-asian:normal;fill:#55565a;fill-opacity:1;stroke-width:4.32633"
         x="1.6859454"
         y="61.588936">M</tspan></text><text
       xml:space="preserve"
       style="font-style:normal;font-variant:normal;font-weight:300;font-stretch:normal;font-size:51.6696px;font-family:Ubuntu;-inkscape-font-specification:'Ubuntu, Light';font-variant-ligatures:normal;font-variant-caps:normal;font-variant-numeric:normal;font-variant-east-asian:normal;fill:#26436e;fill-opacity:1;stroke-width:4.30578"
       x="136.4174"
       y="63.408455"
       id="text6352"
       inkscape:label="share"
       transform="scale(1.0696499,0.93488533)"><tspan
         sodipodi:role="line"
         id="tspan6350"
         style="font-style:normal;font-variant:normal;font-weight:300;font-stretch:normal;font-size:51.6696px;font-family:Ubuntu;-inkscape-font-specification:'Ubuntu, Light';font-variant-ligatures:normal;font-variant-caps:normal;font-variant-numeric:normal;font-variant-east-asian:normal;fill:#26436e;fill-opacity:1;stroke-width:4.30578"
         x="136.4174"
         y="63.408455">GUIDE</tspan></text></g></svg>
