<?xml version="1.0" encoding="UTF-8" standalone="no"?>
<!-- Created with Inkscape (http://www.inkscape.org/) -->

<svg
   width="84.666664mm"
   height="84.402084mm"
   viewBox="0 0 84.666664 84.402084"
   version="1.1"
   id="svg5"
   xml:space="preserve"
   xmlns="http://www.w3.org/2000/svg"
   xmlns:svg="http://www.w3.org/2000/svg"><defs
     id="defs2" /><g
     id="layer1"><rect
       style="fill:#ffffff;fill-opacity:1;stroke-width:0.264583"
       id="rect5301"
       width="415.10947"
       height="226.36662"
       x="-143.32164"
       y="-54.500549" /><path
       id="rect4634"
       style="display:inline;fill:#c7e9f4;fill-opacity:1;stroke-width:0.216917"
       d="M 42.497243,5.00774 A 37.5,37.5 0 0 0 4.9972086,42.507775 37.5,37.5 0 0 0 42.497243,80.007811 37.5,37.5 0 0 0 79.830363,46.007819 h -5.0462 A 32.5,32.5 0 0 1 42.497243,75.0076 32.5,32.5 0 0 1 9.9974197,42.507775 32.5,32.5 0 0 1 42.497243,10.007952 32.5,32.5 0 0 1 74.784163,39.00773 h 5.0462 A 37.5,37.5 0 0 0 42.497243,5.00774 Z" /><rect
       style="display:inline;fill:#55565a;fill-opacity:1;stroke-width:0.261723"
       id="rect4630"
       width="15.127126"
       height="5"
       x="64.715134"
       y="40.007736" /><path
       id="rect4610"
       style="display:inline;fill:#79d0e1;fill-opacity:1;stroke-width:0.193397"
       d="m 42.497243,15.007644 a 27.5,27.5 0 0 0 -27.500128,27.500131 27.5,27.5 0 0 0 27.500128,27.50013 27.5,27.5 0 0 0 27.27637,-24.000086 h -5.05809 A 22.5,22.5 0 0 1 42.497243,65.007693 22.5,22.5 0 0 1 19.997327,42.507775 22.5,22.5 0 0 1 42.497243,20.007856 22.5,22.5 0 0 1 64.715523,39.00773 h 5.05809 A 27.5,27.5 0 0 0 42.497243,15.007644 Z" /><path
       id="circle3934"
       style="display:inline;fill:#55565a;fill-opacity:1;stroke-width:0.268927"
       d="M 42.497243,25.007551 A 17.5,17.5 0 0 0 24.997022,42.507775 17.5,17.5 0 0 0 42.497243,60.007482 17.5,17.5 0 0 0 59.996953,42.507775 17.5,17.5 0 0 0 42.497243,25.007551 Z m 0,5.000211 a 12.5,12.5 0 0 1 12.50001,12.500013 12.5,12.5 0 0 1 -12.50001,12.500012 12.5,12.5 0 0 1 -12.50001,-12.500012 12.5,12.5 0 0 1 12.50001,-12.500013 z" /></g></svg>
